<svg xmlns="http://www.w3.org/2000/svg" width="15.553" height="16" viewBox="0 0 15.553 16">
  <g id="Group_2" data-name="Group 2" transform="translate(136.59 221.24) rotate(180)">
    <path id="Path_1" data-name="Path 1" d="M120.467,216.117a1.987,1.987,0,0,1-.465-1.328,2.04,2.04,0,0,1,.435-1.151,1.788,1.788,0,0,1,.425-2.058,3.7,3.7,0,0,1,2.687-.643,10.5,10.5,0,0,1,1.646.211h0c.167.03.345.067.525.107a5.842,5.842,0,0,0-.418-1.944c-.468-1.425-.442-2.516.087-3.245a2.127,2.127,0,0,1,1.7-.827.84.84,0,0,1,.646.294,2.252,2.252,0,0,1,.281,1.6c.442,1.184,1.679,4.089,2.727,4.895a.358.358,0,0,1,.053.047,3.591,3.591,0,0,1,.656.984,1.382,1.382,0,0,1,.663-.167h2.041a1.393,1.393,0,0,1,1.392,1.392v5.437a1.393,1.393,0,0,1-1.392,1.392h-2.041a1.389,1.389,0,0,1-.8-.254l-.786.094a33.716,33.716,0,0,1-4.46.244c-.4.03-.773.047-1.121.047a7.5,7.5,0,0,1-1.556-.141,2.909,2.909,0,0,1-2.078-1.291,2.048,2.048,0,0,1-.228-1.281,2.134,2.134,0,0,1-.76-1.737,2.263,2.263,0,0,1,.137-.673Zm13.695,4.089a.489.489,0,0,0,.488-.488v-5.441a.489.489,0,0,0-.488-.489h-2.041a.489.489,0,0,0-.489.489v5.437a.489.489,0,0,0,.489.489h2.041Zm-12.838-4.48a.45.45,0,0,1,.06.546,1.393,1.393,0,0,0-.154.559,1.339,1.339,0,0,0,.629,1.158.456.456,0,0,1,.154.515,1.182,1.182,0,0,0,.09.863,2.094,2.094,0,0,0,1.479.85,8.808,8.808,0,0,0,2.439.074h.047a33.032,33.032,0,0,0,4.35-.238h0l.338-.04a1.417,1.417,0,0,1-.03-.294v-5.441a1.414,1.414,0,0,1,.064-.415,2.8,2.8,0,0,0-.622-1.148c-1.5-1.191-2.971-5.21-3.035-5.383a.425.425,0,0,1-.02-.224,2.087,2.087,0,0,0-.043-.97,1.2,1.2,0,0,0-.943.452,2.85,2.85,0,0,0,.04,2.432c.562,1.7.609,2.6.164,2.995a.73.73,0,0,1-.729.131c-.2-.047-.4-.087-.582-.117l-.043-.01c-1.027-.224-2.868-.361-3.507.221a.963.963,0,0,0-.114,1.221.447.447,0,0,1-.08.582,1.267,1.267,0,0,0-.371.78,1.242,1.242,0,0,0,.418.9Zm0,0" transform="translate(1.036 0)" fill="#707070"/>
  </g>
</svg>
