<svg xmlns="http://www.w3.org/2000/svg" width="24.303" height="25" viewBox="0 0 24.303 25">
  <path id="Path_1" data-name="Path 1" d="M143.573,222.236a3.105,3.105,0,0,0,.727-2.075,3.188,3.188,0,0,0-.68-1.8,2.794,2.794,0,0,0-.664-3.215c-.831-.758-2.243-1.1-4.2-1a16.4,16.4,0,0,0-2.572.33h-.005c-.261.047-.539.1-.821.167a9.129,9.129,0,0,1,.654-3.038c.732-2.227.69-3.931-.136-5.071a3.324,3.324,0,0,0-2.661-1.291,1.313,1.313,0,0,0-1.009.46,3.519,3.519,0,0,0-.439,2.494c-.69,1.851-2.624,6.389-4.261,7.649a.559.559,0,0,0-.083.073,5.612,5.612,0,0,0-1.025,1.537,2.159,2.159,0,0,0-1.035-.261h-3.189A2.177,2.177,0,0,0,120,219.366v8.5a2.177,2.177,0,0,0,2.175,2.175h3.189a2.171,2.171,0,0,0,1.255-.4l1.228.147a52.674,52.674,0,0,0,6.969.382c.622.047,1.208.073,1.751.073a11.718,11.718,0,0,0,2.431-.22A4.545,4.545,0,0,0,142.245,228a3.2,3.2,0,0,0,.356-2,3.335,3.335,0,0,0,1.187-2.713,3.536,3.536,0,0,0-.214-1.051Zm-21.4,6.389a.764.764,0,0,1-.763-.763v-8.5a.764.764,0,0,1,.763-.763h3.189a.764.764,0,0,1,.764.763v8.5a.764.764,0,0,1-.764.764h-3.189Zm20.06-7a.7.7,0,0,0-.094.852,2.177,2.177,0,0,1,.24.873,2.092,2.092,0,0,1-.983,1.809.712.712,0,0,0-.24.805,1.848,1.848,0,0,1-.141,1.349,3.272,3.272,0,0,1-2.311,1.328,13.761,13.761,0,0,1-3.811.115h-.073a51.612,51.612,0,0,1-6.8-.371h-.005l-.528-.063a2.213,2.213,0,0,0,.047-.46v-8.5a2.21,2.21,0,0,0-.1-.648,4.372,4.372,0,0,1,.972-1.793c2.348-1.861,4.643-8.14,4.742-8.412a.664.664,0,0,0,.031-.35,3.262,3.262,0,0,1,.068-1.516,1.875,1.875,0,0,1,1.474.706c.533.737.512,2.055-.063,3.8-.878,2.661-.951,4.062-.256,4.679a1.14,1.14,0,0,0,1.14.2c.319-.073.622-.136.91-.183l.068-.016c1.605-.35,4.481-.564,5.479.345a1.5,1.5,0,0,1,.178,1.908.7.7,0,0,0,.125.91,1.979,1.979,0,0,1,.58,1.218,1.941,1.941,0,0,1-.654,1.411Zm0,0" transform="translate(-120 -205.24)" fill="#5574f7"/>
</svg>
