<svg xmlns="http://www.w3.org/2000/svg" width="25" height="25" viewBox="0 0 25 25">
  <path id="Path_2" data-name="Path 2" d="M141.381,210.037a5.513,5.513,0,0,0-7.8,0l-14.308,14.3a.715.715,0,0,0-.2.41l-1.06,7.852a.713.713,0,0,0,.2.6.728.728,0,0,0,.506.213.562.562,0,0,0,.1-.005l4.73-.639a.72.72,0,1,0-.192-1.427l-3.793.511.74-5.477,5.764,5.764a.727.727,0,0,0,.506.213.706.706,0,0,0,.506-.213l14.308-14.3a5.511,5.511,0,0,0,0-7.8Zm-7.527,1.758,2.4,2.4L123.2,227.255l-2.4-2.4Zm-7.282,18.827-2.349-2.349,13.056-13.057,2.349,2.349Zm14.057-14.086-5.748-5.748a4.083,4.083,0,0,1,5.748,5.748Zm0,0" transform="translate(-118 -208.419)" fill="#5574f7"/>
</svg>
